# xmcd
#
# Track frame offsets: 
#        150
#        14145
#        33380
#        57681
#        83509
#        101191
#        117488
#        137544
#        155247
#        171406
#        191506
#        214983
#
# Disc length: 3098 seconds
#
# Revision: 1
# Processed by: cddbd v1.5.1PL2 Copyright (c) Steve Scherf et al.
# Submitted via: ExactAudioCopy v0.95b4
#
DISCID=b50c180c
DTITLE=Gerry Mulligan - The Complete Verve Gerry Mulligan Concert Jazz
DTITLE=Band Sessions Disc 4
DYEAR=1962
DGENRE=Jazz
TTITLE0=Little Rock Getaway
TTITLE1=Ballad
TTITLE2=Big City Life
TTITLE3=Big City Blues
TTITLE4=My Kinda Love
TTITLE5=Pretty Little Gypsy
TTITLE6=Bridgehampton South
TTITLE7=Bridgehampton Strut
TTITLE8=Chant
TTITLE9=Ballad (alt. tk.)
TTITLE10=Bridgehampton South (alt. tk.)
TTITLE11=Bridgehampton Strut (alt. tk.)
EXTD=YEAR: 1962
EXTT0=
EXTT1=
EXTT2=
EXTT3=
EXTT4=
EXTT5=
EXTT6=
EXTT7=
EXTT8=
EXTT9=
EXTT10=
EXTT11=
PLAYORDER=
